<svg width="75" height="75" viewBox="0 0 75 75" fill="none" xmlns="http://www.w3.org/2000/svg">
<circle cx="37.5" cy="37.5" r="37.5" fill="#6EC064"/>
<path d="M21.1534 47.0969H32.1921C33.0631 47.0969 33.8114 47.4202 34.437 48.067C35.062 48.7138 35.375 49.4841 35.375 50.3768C35.375 51.3008 35.062 52.0861 34.437 52.7329C33.8114 53.3796 33.0631 53.703 32.1921 53.703H17.9705C16.8066 53.703 15.8543 53.3103 15.1126 52.525C14.3709 51.7396 14 50.7314 14 49.4991V25.5738C14 24.3421 14.3709 23.3332 15.1126 22.5479C15.8543 21.7625 16.8066 21.3699 17.9705 21.3699H31.7558C32.6284 21.3699 33.3767 21.6857 34.0006 22.3169C34.6257 22.9486 34.9387 23.7109 34.9387 24.6036C34.9387 25.5588 34.6257 26.3591 34.0006 27.0059C33.3767 27.6526 32.6284 27.976 31.7558 27.976H21.1534V34.3027H27.7417C28.6143 34.3027 29.3561 34.6185 29.9669 35.2497C30.5778 35.8814 30.8832 36.6125 30.8832 37.444C30.8832 38.3068 30.5778 39.0534 29.9669 39.6846C29.3561 40.3163 28.6143 40.6316 27.7417 40.6316H21.1534V47.0969Z" fill="white"/>
<g filter="url(#filter0_d_202_4977)">
<path d="M55.1956 35.5669C57.5585 36.5729 59.1611 37.8224 60.0034 39.3153C60.8457 40.8087 61.2669 42.4354 61.2669 44.1952C61.2669 47.0543 60.306 49.4029 58.3853 51.2417C56.4657 53.0806 53.614 54 49.8314 54H41.7208C40.5382 54 39.5706 53.5992 38.817 52.7977C38.0633 51.9961 37.6865 50.9671 37.6865 49.7094V25.2906C37.6865 24.0335 38.0633 23.0039 38.817 22.2023C39.5706 21.4008 40.5382 21 41.7208 21H49.255C50.969 21 52.565 21.2988 54.0429 21.8958C55.5203 22.4935 56.7167 23.4046 57.6316 24.6305C58.5476 25.8564 59.0059 27.4283 59.0059 29.3455C59.0059 30.6014 58.7322 31.7949 58.1858 32.9265C57.6388 34.0581 56.6419 34.9386 55.1956 35.5669ZM44.9548 27.5066V33.4923H49.255C50.0231 33.4923 50.6587 33.1782 51.1613 32.5493C51.6634 31.921 51.915 31.1831 51.915 30.3356C51.915 29.3614 51.6634 28.6465 51.1613 28.1903C50.6587 27.7347 50.0231 27.5066 49.255 27.5066H44.9548ZM49.8314 47.4934C50.984 47.4934 51.8706 47.2812 52.4913 46.8568C53.112 46.4325 53.5475 45.915 53.7991 45.3033C54.0501 44.6903 54.1759 44.0856 54.1759 43.488C54.1759 42.8597 54.0573 42.2309 53.8213 41.602C53.5846 40.9737 53.1563 40.4468 52.5356 40.0225C51.915 39.5982 51.0134 39.386 49.8314 39.386H44.9548V47.4934H49.8314Z" fill="#FFC84D"/>
</g>
<defs>
<filter id="filter0_d_202_4977" x="33.6865" y="21" width="31.5801" height="41" filterUnits="userSpaceOnUse" color-interpolation-filters="sRGB">
<feFlood flood-opacity="0" result="BackgroundImageFix"/>
<feColorMatrix in="SourceAlpha" type="matrix" values="0 0 0 0 0 0 0 0 0 0 0 0 0 0 0 0 0 0 127 0" result="hardAlpha"/>
<feOffset dy="4"/>
<feGaussianBlur stdDeviation="2"/>
<feComposite in2="hardAlpha" operator="out"/>
<feColorMatrix type="matrix" values="0 0 0 0 0 0 0 0 0 0 0 0 0 0 0 0 0 0 0.1 0"/>
<feBlend mode="normal" in2="BackgroundImageFix" result="effect1_dropShadow_202_4977"/>
<feBlend mode="normal" in="SourceGraphic" in2="effect1_dropShadow_202_4977" result="shape"/>
</filter>
</defs>
</svg>
