<svg xmlns="http://www.w3.org/2000/svg" xmlns:xlink="http://www.w3.org/1999/xlink" width="1920" zoomAndPan="magnify" viewBox="0 0 1440 374.999991" height="500" preserveAspectRatio="xMidYMid meet" version="1.0"><defs><g/><clipPath id="376699564e"><path d="M 1082.382812 37.5 L 1381 37.5 L 1381 268 L 1082.382812 268 Z M 1082.382812 37.5 " clip-rule="nonzero"/></clipPath><clipPath id="eb2bc67242"><path d="M 1158 277 L 1209 277 L 1209 327 L 1158 327 Z M 1158 277 " clip-rule="nonzero"/></clipPath><clipPath id="f26ed4a90c"><path d="M 1300 277 L 1351 277 L 1351 327 L 1300 327 Z M 1300 277 " clip-rule="nonzero"/></clipPath><clipPath id="b493d0843a"><path d="M 426 122 L 562 122 L 562 302.878906 L 426 302.878906 Z M 426 122 " clip-rule="nonzero"/></clipPath><clipPath id="7935f96f72"><path d="M 891 122 L 1027 122 L 1027 302.878906 L 891 302.878906 Z M 891 122 " clip-rule="nonzero"/></clipPath><clipPath id="32ceeca137"><rect x="0" width="1036" y="0" height="303"/></clipPath></defs><g clip-path="url(#376699564e)"><path fill="#ffc84d" d="M 1378.113281 85.429688 C 1375.746094 82.558594 1372.214844 80.894531 1368.484375 80.894531 L 1155.367188 80.894531 L 1145.109375 46.433594 C 1143.53125 41.136719 1138.664062 37.507812 1133.136719 37.507812 L 1095.003906 37.507812 C 1088.105469 37.507812 1082.511719 43.097656 1082.511719 50 C 1082.511719 56.898438 1088.105469 62.488281 1095.003906 62.488281 L 1123.820312 62.488281 L 1170.503906 219.292969 C 1165.441406 228.570312 1160.640625 241.851562 1166.085938 252.980469 C 1170.902344 262.828125 1181.792969 267.824219 1198.441406 267.824219 C 1198.742188 267.824219 1199.046875 267.8125 1199.347656 267.785156 C 1200.429688 267.683594 1308.039062 257.816406 1345.140625 259.921875 C 1350.550781 260.210938 1355.238281 256.070312 1355.542969 250.628906 C 1355.851562 245.191406 1351.691406 240.535156 1346.25 240.234375 C 1308.582031 238.105469 1206.859375 247.292969 1198.003906 248.101562 C 1188.875 248.042969 1184.648438 246.035156 1183.804688 244.316406 C 1182.863281 242.402344 1183.53125 238.78125 1185.113281 234.6875 C 1185.378906 234.671875 1185.640625 234.671875 1185.914062 234.636719 L 1348.945312 214.917969 C 1354.332031 214.261719 1358.683594 210.203125 1359.707031 204.878906 L 1380.75 95.753906 C 1381.453125 92.089844 1380.488281 88.304688 1378.113281 85.429688 Z M 1287.621094 146.023438 L 1236.347656 146.023438 L 1236.347656 105.875 L 1287.621094 105.875 Z M 1178.28125 157.855469 L 1224.515625 157.855469 L 1224.515625 204.804688 L 1193.375 208.574219 Z M 1236.347656 157.855469 L 1287.621094 157.855469 L 1287.621094 197.167969 L 1236.347656 203.371094 Z M 1345.617188 146.023438 L 1299.457031 146.023438 L 1299.457031 105.875 L 1353.359375 105.875 Z M 1224.515625 105.875 L 1224.515625 146.023438 L 1174.757812 146.023438 L 1162.804688 105.875 Z M 1299.457031 195.738281 L 1299.457031 157.855469 L 1343.335938 157.855469 L 1336.90625 191.203125 Z M 1299.457031 195.738281 " fill-opacity="1" fill-rule="nonzero"/></g><g clip-path="url(#eb2bc67242)"><path fill="#ffc84d" d="M 1208.078125 302.410156 C 1208.078125 303.230469 1208.039062 304.042969 1207.957031 304.859375 C 1207.878906 305.671875 1207.757812 306.480469 1207.597656 307.28125 C 1207.441406 308.082031 1207.242188 308.875 1207.003906 309.65625 C 1206.765625 310.4375 1206.492188 311.207031 1206.179688 311.960938 C 1205.867188 312.71875 1205.515625 313.457031 1205.132812 314.175781 C 1204.746094 314.898438 1204.328125 315.597656 1203.871094 316.277344 C 1203.417969 316.957031 1202.933594 317.613281 1202.414062 318.246094 C 1201.894531 318.875 1201.347656 319.480469 1200.769531 320.058594 C 1200.191406 320.636719 1199.585938 321.183594 1198.953125 321.703125 C 1198.324219 322.222656 1197.667969 322.707031 1196.988281 323.164062 C 1196.308594 323.617188 1195.605469 324.035156 1194.886719 324.421875 C 1194.164062 324.808594 1193.425781 325.15625 1192.671875 325.46875 C 1191.917969 325.78125 1191.148438 326.058594 1190.367188 326.292969 C 1189.585938 326.53125 1188.792969 326.730469 1187.992188 326.890625 C 1187.1875 327.050781 1186.382812 327.167969 1185.566406 327.25 C 1184.753906 327.328125 1183.9375 327.367188 1183.121094 327.367188 C 1182.304688 327.367188 1181.488281 327.328125 1180.675781 327.25 C 1179.863281 327.167969 1179.054688 327.050781 1178.253906 326.890625 C 1177.449219 326.730469 1176.660156 326.53125 1175.875 326.292969 C 1175.09375 326.058594 1174.324219 325.78125 1173.570312 325.46875 C 1172.816406 325.15625 1172.078125 324.808594 1171.355469 324.421875 C 1170.636719 324.035156 1169.933594 323.617188 1169.253906 323.164062 C 1168.574219 322.707031 1167.921875 322.222656 1167.289062 321.703125 C 1166.65625 321.183594 1166.050781 320.636719 1165.472656 320.058594 C 1164.894531 319.480469 1164.347656 318.875 1163.828125 318.246094 C 1163.308594 317.613281 1162.824219 316.957031 1162.371094 316.277344 C 1161.914062 315.597656 1161.496094 314.898438 1161.109375 314.175781 C 1160.726562 313.457031 1160.375 312.71875 1160.0625 311.960938 C 1159.75 311.207031 1159.476562 310.4375 1159.238281 309.65625 C 1159 308.875 1158.804688 308.082031 1158.644531 307.28125 C 1158.484375 306.480469 1158.363281 305.671875 1158.285156 304.859375 C 1158.203125 304.042969 1158.164062 303.230469 1158.164062 302.410156 C 1158.164062 301.59375 1158.203125 300.777344 1158.285156 299.964844 C 1158.363281 299.152344 1158.484375 298.34375 1158.644531 297.542969 C 1158.804688 296.742188 1159 295.949219 1159.238281 295.167969 C 1159.476562 294.382812 1159.75 293.617188 1160.0625 292.859375 C 1160.375 292.105469 1160.726562 291.367188 1161.109375 290.648438 C 1161.496094 289.925781 1161.914062 289.226562 1162.371094 288.546875 C 1162.824219 287.867188 1163.308594 287.210938 1163.828125 286.578125 C 1164.347656 285.945312 1164.894531 285.339844 1165.472656 284.765625 C 1166.050781 284.1875 1166.65625 283.636719 1167.289062 283.117188 C 1167.921875 282.601562 1168.574219 282.113281 1169.253906 281.660156 C 1169.933594 281.207031 1170.636719 280.785156 1171.355469 280.402344 C 1172.078125 280.015625 1172.816406 279.667969 1173.570312 279.355469 C 1174.324219 279.039062 1175.09375 278.765625 1175.875 278.527344 C 1176.660156 278.292969 1177.449219 278.09375 1178.253906 277.933594 C 1179.054688 277.773438 1179.863281 277.652344 1180.675781 277.574219 C 1181.488281 277.492188 1182.304688 277.453125 1183.121094 277.453125 C 1183.9375 277.453125 1184.753906 277.492188 1185.566406 277.574219 C 1186.382812 277.652344 1187.1875 277.773438 1187.992188 277.933594 C 1188.792969 278.09375 1189.585938 278.292969 1190.367188 278.527344 C 1191.148438 278.765625 1191.917969 279.039062 1192.671875 279.355469 C 1193.425781 279.667969 1194.164062 280.015625 1194.886719 280.402344 C 1195.605469 280.785156 1196.308594 281.207031 1196.988281 281.660156 C 1197.667969 282.113281 1198.324219 282.601562 1198.953125 283.117188 C 1199.585938 283.636719 1200.191406 284.1875 1200.769531 284.765625 C 1201.347656 285.339844 1201.894531 285.945312 1202.414062 286.578125 C 1202.933594 287.210938 1203.417969 287.867188 1203.871094 288.546875 C 1204.328125 289.226562 1204.746094 289.925781 1205.132812 290.648438 C 1205.515625 291.367188 1205.867188 292.105469 1206.179688 292.859375 C 1206.492188 293.617188 1206.765625 294.382812 1207.003906 295.167969 C 1207.242188 295.949219 1207.441406 296.742188 1207.597656 297.542969 C 1207.757812 298.34375 1207.878906 299.152344 1207.957031 299.964844 C 1208.039062 300.777344 1208.078125 301.59375 1208.078125 302.410156 Z M 1208.078125 302.410156 " fill-opacity="1" fill-rule="nonzero"/></g><g clip-path="url(#f26ed4a90c)"><path fill="#ffc84d" d="M 1350.074219 302.410156 C 1350.074219 303.230469 1350.035156 304.042969 1349.953125 304.859375 C 1349.875 305.671875 1349.753906 306.480469 1349.59375 307.28125 C 1349.4375 308.082031 1349.238281 308.875 1349 309.65625 C 1348.761719 310.4375 1348.488281 311.207031 1348.175781 311.960938 C 1347.863281 312.71875 1347.511719 313.457031 1347.128906 314.175781 C 1346.742188 314.898438 1346.324219 315.597656 1345.867188 316.277344 C 1345.414062 316.957031 1344.929688 317.613281 1344.410156 318.246094 C 1343.890625 318.875 1343.34375 319.480469 1342.765625 320.058594 C 1342.1875 320.636719 1341.582031 321.183594 1340.949219 321.703125 C 1340.320312 322.222656 1339.664062 322.707031 1338.984375 323.164062 C 1338.304688 323.617188 1337.601562 324.035156 1336.882812 324.421875 C 1336.160156 324.808594 1335.421875 325.15625 1334.667969 325.46875 C 1333.914062 325.78125 1333.144531 326.058594 1332.363281 326.292969 C 1331.582031 326.53125 1330.789062 326.730469 1329.988281 326.890625 C 1329.183594 327.050781 1328.378906 327.167969 1327.5625 327.25 C 1326.75 327.328125 1325.933594 327.367188 1325.117188 327.367188 C 1324.300781 327.367188 1323.484375 327.328125 1322.671875 327.25 C 1321.859375 327.167969 1321.050781 327.050781 1320.25 326.890625 C 1319.445312 326.730469 1318.65625 326.53125 1317.871094 326.292969 C 1317.089844 326.058594 1316.320312 325.78125 1315.566406 325.46875 C 1314.8125 325.15625 1314.074219 324.808594 1313.351562 324.421875 C 1312.632812 324.035156 1311.929688 323.617188 1311.25 323.164062 C 1310.570312 322.707031 1309.917969 322.222656 1309.285156 321.703125 C 1308.652344 321.183594 1308.046875 320.636719 1307.46875 320.058594 C 1306.890625 319.480469 1306.34375 318.875 1305.824219 318.246094 C 1305.304688 317.613281 1304.820312 316.957031 1304.367188 316.277344 C 1303.910156 315.597656 1303.492188 314.898438 1303.105469 314.175781 C 1302.722656 313.457031 1302.371094 312.71875 1302.058594 311.960938 C 1301.746094 311.207031 1301.472656 310.4375 1301.234375 309.65625 C 1300.996094 308.875 1300.800781 308.082031 1300.640625 307.28125 C 1300.480469 306.480469 1300.359375 305.671875 1300.28125 304.859375 C 1300.199219 304.042969 1300.160156 303.230469 1300.160156 302.410156 C 1300.160156 301.59375 1300.199219 300.777344 1300.28125 299.964844 C 1300.359375 299.152344 1300.480469 298.34375 1300.640625 297.542969 C 1300.800781 296.742188 1300.996094 295.949219 1301.234375 295.167969 C 1301.472656 294.382812 1301.746094 293.617188 1302.058594 292.859375 C 1302.371094 292.105469 1302.722656 291.367188 1303.105469 290.648438 C 1303.492188 289.925781 1303.910156 289.226562 1304.367188 288.546875 C 1304.820312 287.867188 1305.304688 287.210938 1305.824219 286.578125 C 1306.34375 285.945312 1306.890625 285.339844 1307.46875 284.765625 C 1308.046875 284.1875 1308.652344 283.636719 1309.285156 283.117188 C 1309.917969 282.601562 1310.570312 282.113281 1311.25 281.660156 C 1311.929688 281.207031 1312.632812 280.785156 1313.351562 280.402344 C 1314.074219 280.015625 1314.8125 279.667969 1315.566406 279.355469 C 1316.320312 279.039062 1317.089844 278.765625 1317.871094 278.527344 C 1318.65625 278.292969 1319.445312 278.09375 1320.25 277.933594 C 1321.050781 277.773438 1321.859375 277.652344 1322.671875 277.574219 C 1323.484375 277.492188 1324.300781 277.453125 1325.117188 277.453125 C 1325.933594 277.453125 1326.75 277.492188 1327.5625 277.574219 C 1328.378906 277.652344 1329.183594 277.773438 1329.988281 277.933594 C 1330.789062 278.09375 1331.582031 278.292969 1332.363281 278.527344 C 1333.144531 278.765625 1333.914062 279.039062 1334.667969 279.355469 C 1335.421875 279.667969 1336.160156 280.015625 1336.882812 280.402344 C 1337.601562 280.785156 1338.304688 281.207031 1338.984375 281.660156 C 1339.664062 282.113281 1340.320312 282.601562 1340.949219 283.117188 C 1341.582031 283.636719 1342.1875 284.1875 1342.765625 284.765625 C 1343.34375 285.339844 1343.890625 285.945312 1344.410156 286.578125 C 1344.929688 287.210938 1345.414062 287.867188 1345.867188 288.546875 C 1346.324219 289.226562 1346.742188 289.925781 1347.128906 290.648438 C 1347.511719 291.367188 1347.863281 292.105469 1348.175781 292.859375 C 1348.488281 293.617188 1348.761719 294.382812 1349 295.167969 C 1349.238281 295.949219 1349.4375 296.742188 1349.59375 297.542969 C 1349.753906 298.34375 1349.875 299.152344 1349.953125 299.964844 C 1350.035156 300.777344 1350.074219 301.59375 1350.074219 302.410156 Z M 1350.074219 302.410156 " fill-opacity="1" fill-rule="nonzero"/></g><g transform="matrix(1, 0, 0, 1, 47, 36)"><g clip-path="url(#32ceeca137)"><g fill="#ffffff" fill-opacity="1"><g transform="translate(0.638946, 253.567725)"><g><path d="M 56.140625 -35.84375 L 119.546875 -35.84375 C 124.554688 -35.84375 128.859375 -34.085938 132.453125 -30.578125 C 136.046875 -27.066406 137.84375 -22.890625 137.84375 -18.046875 C 137.84375 -13.035156 136.046875 -8.773438 132.453125 -5.265625 C 128.859375 -1.753906 124.554688 0 119.546875 0 L 37.84375 0 C 31.15625 0 25.679688 -2.128906 21.421875 -6.390625 C 17.160156 -10.648438 15.03125 -16.125 15.03125 -22.8125 L 15.03125 -152.625 C 15.03125 -159.3125 17.160156 -164.785156 21.421875 -169.046875 C 25.679688 -173.304688 31.15625 -175.4375 37.84375 -175.4375 L 117.046875 -175.4375 C 122.054688 -175.4375 126.359375 -173.722656 129.953125 -170.296875 C 133.546875 -166.867188 135.34375 -162.734375 135.34375 -157.890625 C 135.34375 -152.710938 133.546875 -148.367188 129.953125 -144.859375 C 126.359375 -141.347656 122.054688 -139.59375 117.046875 -139.59375 L 56.140625 -139.59375 L 56.140625 -105.265625 L 93.984375 -105.265625 C 98.992188 -105.265625 103.253906 -103.550781 106.765625 -100.125 C 110.273438 -96.695312 112.03125 -92.726562 112.03125 -88.21875 C 112.03125 -83.539062 110.273438 -79.488281 106.765625 -76.0625 C 103.253906 -72.632812 98.992188 -70.921875 93.984375 -70.921875 L 56.140625 -70.921875 Z M 56.140625 -35.84375 "/></g></g></g><g fill="#ffffff" fill-opacity="1"><g transform="translate(142.235834, 253.567725)"><g><path d="M 122.8125 -131.078125 C 128.15625 -131.078125 132.914062 -129.113281 137.09375 -125.1875 C 141.269531 -121.257812 143.359375 -116.625 143.359375 -111.28125 L 143.359375 -18.296875 C 143.359375 -12.785156 141.269531 -8.109375 137.09375 -4.265625 C 132.914062 -0.421875 128.15625 1.5 122.8125 1.5 C 118.125 1.5 113.941406 0.0390625 110.265625 -2.875 C 106.597656 -5.800781 104.257812 -9.519531 103.25 -14.03125 C 101.414062 -10.851562 97.738281 -7.425781 92.21875 -3.75 C 86.707031 -0.0820312 79.359375 1.75 70.171875 1.75 C 63.328125 1.75 56.351562 0.414062 49.25 -2.25 C 42.144531 -4.925781 35.625 -9.019531 29.6875 -14.53125 C 23.757812 -20.050781 19 -26.988281 15.40625 -35.34375 C 11.820312 -43.695312 10.03125 -53.632812 10.03125 -65.15625 C 10.03125 -76.351562 11.863281 -86.128906 15.53125 -94.484375 C 19.207031 -102.835938 24.007812 -109.769531 29.9375 -115.28125 C 35.875 -120.800781 42.394531 -124.9375 49.5 -127.6875 C 56.601562 -130.445312 63.492188 -131.828125 70.171875 -131.828125 C 78.691406 -131.828125 85.832031 -129.863281 91.59375 -125.9375 C 97.363281 -122.007812 101.082031 -117.875 102.75 -113.53125 L 102.75 -111.28125 C 102.75 -116.625 104.753906 -121.257812 108.765625 -125.1875 C 112.773438 -129.113281 117.457031 -131.078125 122.8125 -131.078125 Z M 77.6875 -32.328125 C 81.363281 -32.328125 85.289062 -33.328125 89.46875 -35.328125 C 93.644531 -37.335938 97.195312 -40.722656 100.125 -45.484375 C 103.050781 -50.242188 104.515625 -56.800781 104.515625 -65.15625 C 104.515625 -73.34375 103.050781 -79.816406 100.125 -84.578125 C 97.195312 -89.347656 93.644531 -92.734375 89.46875 -94.734375 C 85.289062 -96.742188 81.363281 -97.75 77.6875 -97.75 C 70.507812 -97.75 64.117188 -94.988281 58.515625 -89.46875 C 52.921875 -83.957031 50.125 -75.851562 50.125 -65.15625 C 50.125 -54.46875 52.921875 -46.320312 58.515625 -40.71875 C 64.117188 -35.125 70.507812 -32.328125 77.6875 -32.328125 Z M 77.6875 -32.328125 "/></g></g></g><g fill="#ffffff" fill-opacity="1"><g transform="translate(300.62399, 253.567725)"><g><path d="M 60.90625 -131.828125 C 68.925781 -131.828125 76.773438 -130.363281 84.453125 -127.4375 C 92.140625 -124.519531 98.070312 -120.21875 102.25 -114.53125 C 103.09375 -113.695312 104.140625 -112.234375 105.390625 -110.140625 C 106.640625 -108.054688 107.265625 -105.34375 107.265625 -102 C 107.265625 -97.15625 105.800781 -93.476562 102.875 -90.96875 C 99.957031 -88.46875 96.328125 -87.21875 91.984375 -87.21875 C 89.304688 -87.21875 86.546875 -87.757812 83.703125 -88.84375 C 80.867188 -89.925781 78.195312 -91.804688 75.6875 -94.484375 C 73.175781 -96.828125 70.832031 -98.414062 68.65625 -99.25 C 66.488281 -100.082031 64.40625 -100.5 62.40625 -100.5 C 59.226562 -100.5 56.71875 -99.785156 54.875 -98.359375 C 53.039062 -96.941406 52.125 -95.066406 52.125 -92.734375 C 52.125 -92.066406 52.414062 -90.8125 53 -88.96875 C 53.59375 -87.132812 56.3125 -85.460938 61.15625 -83.953125 L 75.9375 -79.453125 C 82.125 -77.609375 87.972656 -75.179688 93.484375 -72.171875 C 98.992188 -69.171875 103.460938 -65.203125 106.890625 -60.265625 C 110.316406 -55.335938 112.03125 -48.953125 112.03125 -41.109375 C 112.03125 -31.410156 109.476562 -23.425781 104.375 -17.15625 C 99.28125 -10.894531 92.722656 -6.257812 84.703125 -3.25 C 76.691406 -0.25 68.34375 1.25 59.65625 1.25 C 51.96875 1.25 45.40625 0.332031 39.96875 -1.5 C 34.539062 -3.34375 30.03125 -5.515625 26.4375 -8.015625 C 22.84375 -10.523438 19.796875 -12.78125 17.296875 -14.78125 C 16.796875 -15.28125 15.832031 -16.445312 14.40625 -18.28125 C 12.988281 -20.125 11.691406 -22.382812 10.515625 -25.0625 C 9.347656 -27.738281 8.765625 -30.578125 8.765625 -33.578125 C 8.765625 -36.753906 9.847656 -40.015625 12.015625 -43.359375 C 14.191406 -46.703125 18.125 -48.375 23.8125 -48.375 C 27.820312 -48.375 31.078125 -47.367188 33.578125 -45.359375 C 36.085938 -43.359375 38.175781 -41.4375 39.84375 -39.59375 C 43.851562 -35.914062 47.445312 -33.535156 50.625 -32.453125 C 53.800781 -31.367188 56.8125 -30.828125 59.65625 -30.828125 C 64.664062 -30.828125 68.046875 -31.742188 69.796875 -33.578125 C 71.554688 -35.421875 72.4375 -37.175781 72.4375 -38.84375 C 72.4375 -39.34375 72.015625 -40.71875 71.171875 -42.96875 C 70.335938 -45.226562 67.082031 -47.195312 61.40625 -48.875 L 49.625 -52.375 C 36.59375 -56.21875 27.191406 -61.566406 21.421875 -68.421875 C 15.660156 -75.273438 12.78125 -83.296875 12.78125 -92.484375 C 12.78125 -101.503906 15.160156 -108.9375 19.921875 -114.78125 C 24.679688 -120.632812 30.78125 -124.9375 38.21875 -127.6875 C 45.65625 -130.445312 53.21875 -131.828125 60.90625 -131.828125 Z M 60.90625 -131.828125 "/></g></g></g><g clip-path="url(#b493d0843a)"><g fill="#ffffff" fill-opacity="1"><g transform="translate(418.913806, 253.567725)"><g><path d="M 123.5625 -131.078125 C 128.90625 -131.078125 133.332031 -129.320312 136.84375 -125.8125 C 140.351562 -122.300781 142.109375 -118.125 142.109375 -113.28125 C 142.109375 -111.445312 141.851562 -109.734375 141.34375 -108.140625 C 140.84375 -106.554688 140.257812 -105.097656 139.59375 -103.765625 L 76.6875 34.59375 C 74.519531 39.4375 71.765625 43.023438 68.421875 45.359375 C 65.078125 47.703125 61.484375 48.875 57.640625 48.875 C 52.460938 48.875 48.203125 47.078125 44.859375 43.484375 C 41.515625 39.890625 39.84375 35.753906 39.84375 31.078125 C 39.84375 29.242188 40.09375 27.488281 40.59375 25.8125 C 41.101562 24.144531 41.609375 22.722656 42.109375 21.546875 L 54.890625 -6.765625 L 9.78125 -103.765625 C 9.269531 -105.097656 8.765625 -106.554688 8.265625 -108.140625 C 7.765625 -109.734375 7.515625 -111.445312 7.515625 -113.28125 C 7.515625 -118.125 9.269531 -122.300781 12.78125 -125.8125 C 16.289062 -129.320312 20.632812 -131.078125 25.8125 -131.078125 C 29.65625 -131.078125 33.25 -129.90625 36.59375 -127.5625 C 39.9375 -125.226562 42.691406 -121.640625 44.859375 -116.796875 L 74.1875 -49.625 L 104.515625 -116.796875 C 106.679688 -121.640625 109.476562 -125.226562 112.90625 -127.5625 C 116.332031 -129.90625 119.882812 -131.078125 123.5625 -131.078125 Z M 123.5625 -131.078125 "/></g></g></g></g><g fill="#ffffff" fill-opacity="1"><g transform="translate(568.530454, 253.567725)"><g><path d="M 114.03125 -98 C 127.394531 -92.644531 136.457031 -86 141.21875 -78.0625 C 145.988281 -70.132812 148.375 -61.488281 148.375 -52.125 C 148.375 -36.925781 142.941406 -24.4375 132.078125 -14.65625 C 121.210938 -4.882812 105.085938 0 83.703125 0 L 37.84375 0 C 31.15625 0 25.679688 -2.128906 21.421875 -6.390625 C 17.160156 -10.648438 15.03125 -16.125 15.03125 -22.8125 L 15.03125 -152.625 C 15.03125 -159.3125 17.160156 -164.785156 21.421875 -169.046875 C 25.679688 -173.304688 31.15625 -175.4375 37.84375 -175.4375 L 80.453125 -175.4375 C 90.140625 -175.4375 99.160156 -173.847656 107.515625 -170.671875 C 115.867188 -167.492188 122.632812 -162.644531 127.8125 -156.125 C 133 -149.613281 135.59375 -141.265625 135.59375 -131.078125 C 135.59375 -124.390625 134.046875 -118.035156 130.953125 -112.015625 C 127.859375 -106.003906 122.21875 -101.332031 114.03125 -98 Z M 56.140625 -140.84375 L 56.140625 -109.015625 L 80.453125 -109.015625 C 84.796875 -109.015625 88.382812 -110.6875 91.21875 -114.03125 C 94.0625 -117.375 95.484375 -121.300781 95.484375 -125.8125 C 95.484375 -130.988281 94.0625 -134.785156 91.21875 -137.203125 C 88.382812 -139.628906 84.796875 -140.84375 80.453125 -140.84375 Z M 83.703125 -34.59375 C 90.222656 -34.59375 95.238281 -35.71875 98.75 -37.96875 C 102.257812 -40.226562 104.722656 -42.984375 106.140625 -46.234375 C 107.554688 -49.492188 108.265625 -52.710938 108.265625 -55.890625 C 108.265625 -59.234375 107.597656 -62.570312 106.265625 -65.90625 C 104.929688 -69.25 102.507812 -72.046875 99 -74.296875 C 95.488281 -76.554688 90.390625 -77.6875 83.703125 -77.6875 L 56.140625 -77.6875 L 56.140625 -34.59375 Z M 83.703125 -34.59375 "/></g></g></g><g fill="#ffffff" fill-opacity="1"><g transform="translate(726.918628, 253.567725)"><g><path d="M 61.65625 1.5 C 52.96875 1.5 45.113281 -0.628906 38.09375 -4.890625 C 31.070312 -9.148438 25.472656 -15.832031 21.296875 -24.9375 C 17.117188 -34.039062 15.03125 -45.945312 15.03125 -60.65625 L 15.03125 -111.53125 C 15.03125 -117.039062 16.992188 -121.71875 20.921875 -125.5625 C 24.847656 -129.40625 29.570312 -131.328125 35.09375 -131.328125 C 40.4375 -131.328125 45.070312 -129.40625 49 -125.5625 C 52.925781 -121.71875 54.890625 -117.039062 54.890625 -111.53125 L 54.890625 -60.65625 C 54.890625 -50.957031 56.9375 -43.8125 61.03125 -39.21875 C 65.125 -34.625 70.507812 -32.328125 77.1875 -32.328125 C 82.375 -32.328125 86.59375 -33.367188 89.84375 -35.453125 C 93.101562 -37.546875 95.648438 -40.054688 97.484375 -42.984375 C 99.328125 -45.910156 100.582031 -48.625 101.25 -51.125 C 101.914062 -53.632812 102.25 -55.222656 102.25 -55.890625 L 102.25 -111.53125 C 102.25 -117.039062 104.253906 -121.71875 108.265625 -125.5625 C 112.273438 -129.40625 116.957031 -131.328125 122.3125 -131.328125 C 127.65625 -131.328125 132.332031 -129.40625 136.34375 -125.5625 C 140.351562 -121.71875 142.359375 -117.039062 142.359375 -111.53125 L 142.359375 -19.296875 C 142.359375 -13.617188 140.351562 -8.816406 136.34375 -4.890625 C 132.332031 -0.960938 127.65625 1 122.3125 1 C 116.957031 1 112.273438 -0.960938 108.265625 -4.890625 C 104.253906 -8.816406 102.25 -13.617188 102.25 -19.296875 L 102.25 -27.0625 C 102.082031 -24.0625 100.367188 -20.300781 97.109375 -15.78125 C 93.859375 -11.269531 89.265625 -7.257812 83.328125 -3.75 C 77.398438 -0.25 70.175781 1.5 61.65625 1.5 Z M 61.65625 1.5 "/></g></g></g><g clip-path="url(#7935f96f72)"><g fill="#ffffff" fill-opacity="1"><g transform="translate(884.304353, 253.567725)"><g><path d="M 123.5625 -131.078125 C 128.90625 -131.078125 133.332031 -129.320312 136.84375 -125.8125 C 140.351562 -122.300781 142.109375 -118.125 142.109375 -113.28125 C 142.109375 -111.445312 141.851562 -109.734375 141.34375 -108.140625 C 140.84375 -106.554688 140.257812 -105.097656 139.59375 -103.765625 L 76.6875 34.59375 C 74.519531 39.4375 71.765625 43.023438 68.421875 45.359375 C 65.078125 47.703125 61.484375 48.875 57.640625 48.875 C 52.460938 48.875 48.203125 47.078125 44.859375 43.484375 C 41.515625 39.890625 39.84375 35.753906 39.84375 31.078125 C 39.84375 29.242188 40.09375 27.488281 40.59375 25.8125 C 41.101562 24.144531 41.609375 22.722656 42.109375 21.546875 L 54.890625 -6.765625 L 9.78125 -103.765625 C 9.269531 -105.097656 8.765625 -106.554688 8.265625 -108.140625 C 7.765625 -109.734375 7.515625 -111.445312 7.515625 -113.28125 C 7.515625 -118.125 9.269531 -122.300781 12.78125 -125.8125 C 16.289062 -129.320312 20.632812 -131.078125 25.8125 -131.078125 C 29.65625 -131.078125 33.25 -129.90625 36.59375 -127.5625 C 39.9375 -125.226562 42.691406 -121.640625 44.859375 -116.796875 L 74.1875 -49.625 L 104.515625 -116.796875 C 106.679688 -121.640625 109.476562 -125.226562 112.90625 -127.5625 C 116.332031 -129.90625 119.882812 -131.078125 123.5625 -131.078125 Z M 123.5625 -131.078125 "/></g></g></g></g></g></g></svg>