<svg width="143" height="73" viewBox="0 0 143 73" fill="none" xmlns="http://www.w3.org/2000/svg">
<mask id="mask0_258_1488" style="mask-type:luminance" maskUnits="userSpaceOnUse" x="0" y="0" width="143" height="73">
<path d="M142.674 0H0V73H142.674V0Z" fill="white"/>
</mask>
<g mask="url(#mask0_258_1488)">
<g filter="url(#filter0_d_258_1488)">
<mask id="mask1_258_1488" style="mask-type:luminance" maskUnits="userSpaceOnUse" x="79" y="11" width="64" height="49">
<path d="M79.3408 11.476H142.322V59.9937H79.3408V11.476Z" fill="white"/>
</mask>
<g mask="url(#mask1_258_1488)">
<path d="M141.659 21.5628C141.16 20.9581 140.416 20.608 139.63 20.608H94.7207L92.5592 13.3564C92.2269 12.2414 91.2012 11.4775 90.0366 11.4775H82.0013C80.5479 11.4775 79.3691 12.6543 79.3691 14.1061C79.3691 15.558 80.5479 16.7348 82.0013 16.7348H88.0732L97.9106 49.7333C96.8446 51.6859 95.833 54.4807 96.9798 56.8224C97.9949 58.8953 100.289 59.9467 103.798 59.9467C103.861 59.9467 103.925 59.9444 103.989 59.938C104.217 59.917 126.893 57.8408 134.711 58.2829C135.852 58.3443 136.839 57.4728 136.903 56.328C136.968 55.1842 136.092 54.2038 134.945 54.1401C127.007 53.693 105.571 55.6254 103.706 55.7962C101.782 55.7838 100.891 55.3609 100.713 54.9993C100.515 54.5965 100.656 53.8349 100.99 52.973C101.046 52.9702 101.101 52.9693 101.158 52.9624L135.513 48.8124C136.648 48.6746 137.565 47.8205 137.781 46.7L142.215 23.7351C142.363 22.9638 142.159 22.1674 141.659 21.5628ZM122.59 34.3142H111.786V25.8653H122.59V34.3142ZM99.55 36.8042H109.293V46.684L102.731 47.4772L99.55 36.8042ZM111.786 36.8042H122.59V45.0774L111.786 46.3828V36.8042ZM134.812 34.3142H125.085V25.8653H136.443L134.812 34.3142ZM109.293 25.8653V34.3142H98.8071L96.2886 25.8653H109.293ZM125.085 44.7762V36.8042H134.331L132.976 43.8223L125.085 44.7762Z" fill="#FFC84D"/>
</g>
</g>
<path d="M105.828 67.2252C105.828 67.3973 105.819 67.569 105.802 67.7402C105.785 67.9114 105.76 68.0812 105.727 68.2496C105.693 68.4185 105.652 68.5851 105.601 68.7499C105.551 68.9142 105.494 69.0762 105.428 69.2351C105.362 69.3939 105.288 69.5495 105.207 69.701C105.125 69.8525 105.037 69.9999 104.942 70.1432C104.846 70.286 104.743 70.4242 104.634 70.5569C104.525 70.6901 104.409 70.8174 104.288 70.9391C104.166 71.0609 104.038 71.1762 103.905 71.2852C103.772 71.3941 103.634 71.4966 103.491 71.5923C103.347 71.688 103.2 71.7763 103.048 71.8573C102.896 71.9383 102.74 72.0116 102.581 72.0775C102.422 72.1434 102.26 72.2011 102.096 72.2514C101.931 72.3013 101.764 72.3429 101.595 72.3764C101.426 72.4102 101.255 72.4354 101.084 72.4519C100.913 72.4688 100.741 72.4775 100.569 72.4775C100.397 72.4775 100.225 72.4688 100.053 72.4519C99.8818 72.4354 99.7118 72.4102 99.5426 72.3764C99.374 72.3429 99.2067 72.3013 99.0422 72.2514C98.8772 72.2011 98.7154 72.1434 98.5563 72.0775C98.3968 72.0116 98.2415 71.9383 98.0898 71.8573C97.9376 71.7763 97.79 71.688 97.647 71.5923C97.5036 71.4966 97.3656 71.3941 97.2322 71.2852C97.0993 71.1762 96.9719 71.0609 96.85 70.9391C96.7281 70.8174 96.6126 70.6901 96.5035 70.5569C96.394 70.4242 96.2918 70.286 96.196 70.1432C96.1002 69.9999 96.0117 69.8525 95.9306 69.701C95.8495 69.5495 95.7757 69.3939 95.7097 69.2351C95.6441 69.0762 95.5859 68.9142 95.536 68.7499C95.486 68.5851 95.4443 68.4185 95.4104 68.2496C95.3769 68.0812 95.3517 67.9114 95.3348 67.7402C95.3178 67.569 95.3096 67.3973 95.3096 67.2252C95.3096 67.0531 95.3178 66.8815 95.3348 66.7103C95.3517 66.5391 95.3769 66.3693 95.4104 66.2004C95.4443 66.032 95.486 65.8654 95.536 65.7006C95.5859 65.5358 95.6441 65.3742 95.7097 65.2154C95.7757 65.0561 95.8495 64.901 95.9306 64.7495C96.0117 64.5975 96.1002 64.4501 96.196 64.3073C96.2918 64.164 96.394 64.0263 96.5035 63.8931C96.6126 63.7603 96.7281 63.6331 96.85 63.5113C96.9719 63.3896 97.0993 63.2742 97.2322 63.1653C97.3656 63.0559 97.5036 62.9538 97.647 62.8582C97.79 62.7625 97.9376 62.6742 98.0898 62.5932C98.2415 62.5122 98.3968 62.4385 98.5563 62.373C98.7154 62.3071 98.8772 62.249 99.0422 62.1991C99.2067 62.1492 99.374 62.1075 99.5426 62.0741C99.7118 62.0402 99.8818 62.0151 100.053 61.9981C100.225 61.9812 100.397 61.973 100.569 61.973C100.741 61.973 100.913 61.9812 101.084 61.9981C101.255 62.0151 101.426 62.0402 101.595 62.0741C101.764 62.1075 101.931 62.1492 102.096 62.1991C102.26 62.249 102.422 62.3071 102.581 62.373C102.74 62.4385 102.896 62.5122 103.048 62.5932C103.2 62.6742 103.347 62.7625 103.491 62.8582C103.634 62.9538 103.772 63.0559 103.905 63.1653C104.038 63.2742 104.166 63.3896 104.288 63.5113C104.409 63.6331 104.525 63.7603 104.634 63.8931C104.743 64.0263 104.846 64.164 104.942 64.3073C105.037 64.4501 105.125 64.5975 105.207 64.7495C105.288 64.901 105.362 65.0561 105.428 65.2154C105.494 65.3742 105.551 65.5358 105.601 65.7006C105.652 65.8654 105.693 66.032 105.727 66.2004C105.76 66.3693 105.785 66.5391 105.802 66.7103C105.819 66.8815 105.828 67.0531 105.828 67.2252Z" fill="#FFC84D"/>
<path d="M135.75 67.2252C135.75 67.3973 135.742 67.569 135.725 67.7402C135.708 67.9114 135.683 68.0812 135.65 68.2496C135.616 68.4185 135.574 68.5851 135.524 68.7499C135.474 68.9142 135.416 69.0762 135.35 69.2351C135.284 69.3939 135.211 69.5495 135.13 69.701C135.048 69.8525 134.96 69.9999 134.865 70.1432C134.769 70.286 134.666 70.4242 134.557 70.5569C134.447 70.6901 134.332 70.8174 134.211 70.9391C134.089 71.0609 133.961 71.1762 133.828 71.2852C133.695 71.3941 133.556 71.4966 133.413 71.5923C133.27 71.688 133.122 71.7763 132.971 71.8573C132.819 71.9383 132.663 72.0116 132.504 72.0775C132.345 72.1434 132.183 72.2011 132.018 72.2514C131.853 72.3013 131.687 72.3429 131.517 72.3764C131.349 72.4102 131.178 72.4354 131.007 72.4519C130.835 72.4688 130.664 72.4775 130.492 72.4775C130.319 72.4775 130.147 72.4688 129.976 72.4519C129.805 72.4354 129.635 72.4102 129.465 72.3764C129.296 72.3429 129.13 72.3013 128.965 72.2514C128.8 72.2011 128.638 72.1434 128.479 72.0775C128.32 72.0116 128.164 71.9383 128.012 71.8573C127.86 71.7763 127.713 71.688 127.57 71.5923C127.426 71.4966 127.288 71.3941 127.155 71.2852C127.022 71.1762 126.895 71.0609 126.773 70.9391C126.651 70.8174 126.535 70.6901 126.426 70.5569C126.317 70.4242 126.215 70.286 126.119 70.1432C126.023 69.9999 125.935 69.8525 125.853 69.701C125.772 69.5495 125.699 69.3939 125.633 69.2351C125.567 69.0762 125.509 68.9142 125.459 68.7499C125.409 68.5851 125.367 68.4185 125.333 68.2496C125.3 68.0812 125.275 67.9114 125.258 67.7402C125.241 67.569 125.232 67.3973 125.232 67.2252C125.232 67.0531 125.241 66.8815 125.258 66.7103C125.275 66.5391 125.3 66.3693 125.333 66.2004C125.367 66.032 125.409 65.8654 125.459 65.7006C125.509 65.5358 125.567 65.3742 125.633 65.2154C125.699 65.0561 125.772 64.901 125.853 64.7495C125.935 64.5975 126.023 64.4501 126.119 64.3073C126.215 64.164 126.317 64.0263 126.426 63.8931C126.535 63.7603 126.651 63.6331 126.773 63.5113C126.895 63.3896 127.022 63.2742 127.155 63.1653C127.288 63.0559 127.426 62.9538 127.57 62.8582C127.713 62.7625 127.86 62.6742 128.012 62.5932C128.164 62.5122 128.32 62.4385 128.479 62.373C128.638 62.3071 128.8 62.249 128.965 62.1991C129.13 62.1492 129.296 62.1075 129.465 62.0741C129.635 62.0402 129.805 62.0151 129.976 61.9981C130.147 61.9812 130.319 61.973 130.492 61.973C130.664 61.973 130.835 61.9812 131.007 61.9981C131.178 62.0151 131.349 62.0402 131.517 62.0741C131.687 62.1075 131.853 62.1492 132.018 62.1991C132.183 62.249 132.345 62.3071 132.504 62.373C132.663 62.4385 132.819 62.5122 132.971 62.5932C133.122 62.6742 133.27 62.7625 133.413 62.8582C133.556 62.9538 133.695 63.0559 133.828 63.1653C133.961 63.2742 134.089 63.3896 134.211 63.5113C134.332 63.6331 134.447 63.7603 134.557 63.8931C134.666 64.0263 134.769 64.164 134.865 64.3073C134.96 64.4501 135.048 64.5975 135.13 64.7495C135.211 64.901 135.284 65.0561 135.35 65.2154C135.416 65.3742 135.474 65.5358 135.524 65.7006C135.574 65.8654 135.616 66.032 135.65 66.2004C135.683 66.3693 135.708 66.5391 135.725 66.7103C135.742 66.8815 135.75 67.0531 135.75 67.2252Z" fill="#FFC84D"/>
<g filter="url(#filter1_d_258_1488)">
<path d="M8.29945 31.782H17.5759C18.3079 31.782 18.9367 32.0383 19.4624 32.551C19.9876 33.0636 20.2507 33.6742 20.2507 34.3818C20.2507 35.1142 19.9876 35.7367 19.4624 36.2493C18.9367 36.762 18.3079 37.0183 17.5759 37.0183H5.62468C4.64662 37.0183 3.84639 36.707 3.22307 36.0845C2.59975 35.462 2.28809 34.6629 2.28809 33.6861V14.7221C2.28809 13.7458 2.59975 12.9461 3.22307 12.3237C3.84639 11.7012 4.64662 11.3899 5.62468 11.3899H17.2093C17.9426 11.3899 18.5714 11.6403 19.0957 12.1406C19.621 12.6413 19.884 13.2455 19.884 13.9531C19.884 14.7102 19.621 15.3446 19.0957 15.8572C18.5714 16.3699 17.9426 16.6262 17.2093 16.6262H8.29945V21.6409H13.836C14.5693 21.6409 15.1926 21.8913 15.706 22.3915C16.2193 22.8923 16.4759 23.4718 16.4759 24.1309C16.4759 24.8147 16.2193 25.4065 15.706 25.9068C15.1926 26.4075 14.5693 26.6574 13.836 26.6574H8.29945V31.782Z" fill="white"/>
</g>
<g filter="url(#filter2_d_258_1488)">
<path d="M38.7634 17.8712C39.5444 17.8712 40.2402 18.1582 40.8516 18.7317C41.4625 19.3043 41.7682 19.9812 41.7682 20.7621V34.3452C41.7682 35.1508 41.4625 35.8346 40.8516 36.3958C40.2402 36.9574 39.5444 37.238 38.7634 37.238C38.0787 37.238 37.4678 37.0242 36.9301 36.5972C36.3921 36.1701 36.0502 35.6268 35.9035 34.9677C35.6345 35.4318 35.0968 35.9321 34.2902 36.469C33.4835 37.0064 32.4079 37.2746 31.0636 37.2746C30.0612 37.2746 29.0406 37.0792 28.002 36.6887C26.9644 36.2983 26.0115 35.7001 25.1439 34.8945C24.2758 34.0889 23.5792 33.0764 23.0539 31.8571C22.5282 30.6368 22.2656 29.184 22.2656 27.4997C22.2656 25.8642 22.5342 24.4362 23.0723 23.2154C23.6099 21.9952 24.3125 20.9818 25.1806 20.1762C26.0482 19.3706 27.001 18.7674 28.0387 18.3655C29.0772 17.9627 30.0855 17.7613 31.0636 17.7613C32.3102 17.7613 33.3552 18.0483 34.1985 18.6218C35.0418 19.1944 35.5854 19.7981 35.8302 20.4325V20.7621C35.8302 19.9812 36.1235 19.3043 36.7101 18.7317C37.2968 18.1582 37.9811 17.8712 38.7634 17.8712ZM32.1636 32.2947C32.7012 32.2947 33.2755 32.1482 33.8869 31.8553C34.4978 31.5623 35.0171 31.0689 35.4452 30.3741C35.8728 29.6784 36.0868 28.7204 36.0868 27.4997C36.0868 26.3036 35.8728 25.3575 35.4452 24.6618C35.0171 23.9661 34.4978 23.4718 33.8869 23.1788C33.2755 22.8859 32.7012 22.7394 32.1636 22.7394C31.1122 22.7394 30.1772 23.1422 29.3586 23.9478C28.5396 24.7534 28.1303 25.9375 28.1303 27.4997C28.1303 29.0623 28.5396 30.2523 29.3586 31.0698C30.1772 31.8864 31.1122 32.2947 32.1636 32.2947Z" fill="white"/>
</g>
<g filter="url(#filter3_d_258_1488)">
<path d="M52.8756 17.7613C54.049 17.7613 55.1975 17.9751 56.3222 18.4021C57.4465 18.8282 58.3141 19.4562 58.9255 20.2861C59.0474 20.4083 59.2005 20.622 59.3838 20.9269C59.5672 21.2322 59.6588 21.629 59.6588 22.1169C59.6588 22.825 59.4448 23.3619 59.0172 23.7281C58.5891 24.0943 58.0574 24.2773 57.4222 24.2773C57.0308 24.2773 56.6275 24.1982 56.2122 24.0393C55.7965 23.881 55.4056 23.6063 55.0389 23.2154C54.6723 22.874 54.3299 22.6419 54.0123 22.5197C53.6942 22.398 53.389 22.3366 53.0956 22.3366C52.6309 22.3366 52.2642 22.4405 51.9957 22.6479C51.7266 22.8557 51.5923 23.1303 51.5923 23.4718C51.5923 23.5697 51.635 23.7528 51.7207 24.021C51.8059 24.2897 52.2033 24.5337 52.9123 24.7534L55.0756 25.4125C55.9799 25.6812 56.8356 26.035 57.6422 26.4744C58.4489 26.9138 59.1024 27.4937 59.6038 28.2137C60.1048 28.9341 60.3555 29.867 60.3555 31.0131C60.3555 32.4292 59.9824 33.5946 59.2372 34.51C58.4915 35.4254 57.5322 36.1029 56.3589 36.5423C55.1856 36.9817 53.9632 37.2014 52.6923 37.2014C51.5676 37.2014 50.6083 37.0668 49.814 36.7986C49.0207 36.5304 48.3612 36.2127 47.8359 35.8465C47.3102 35.4804 46.8643 35.1508 46.4976 34.8579C46.4243 34.7846 46.2836 34.6139 46.076 34.3452C45.8679 34.077 45.6786 33.7475 45.5076 33.3566C45.3362 32.9661 45.251 32.551 45.251 32.1116C45.251 31.6479 45.4096 31.1724 45.7276 30.6853C46.0453 30.1974 46.6195 29.953 47.4509 29.953C48.0376 29.953 48.5142 30.0995 48.8809 30.3924C49.2476 30.6853 49.5528 30.9655 49.7975 31.2328C50.3828 31.7701 50.9076 32.118 51.3723 32.2764C51.8366 32.4352 52.2766 32.5144 52.6923 32.5144C53.4256 32.5144 53.9206 32.3803 54.1773 32.1116C54.4339 31.8434 54.5623 31.587 54.5623 31.3426C54.5623 31.2694 54.5009 31.0689 54.3789 30.7403C54.2566 30.4107 53.7799 30.1242 52.949 29.8798L51.2257 29.3671C49.32 28.806 47.9459 28.0247 47.1026 27.0236C46.2593 26.0231 45.8376 24.8513 45.8376 23.5084C45.8376 22.1902 46.186 21.104 46.8826 20.2495C47.5793 19.3954 48.4707 18.7674 49.5574 18.3655C50.645 17.9627 51.7509 17.7613 52.8756 17.7613Z" fill="white"/>
</g>
<g filter="url(#filter4_d_258_1488)">
<path d="M79.3436 17.8708C80.1246 17.8708 80.7717 18.1271 81.2851 18.6397C81.7984 19.1515 82.055 19.7611 82.055 20.4688C82.055 20.7374 82.0184 20.9878 81.945 21.2194C81.8717 21.4515 81.786 21.6652 81.6884 21.8602L72.4871 42.0711C72.169 42.7778 71.7657 43.3019 71.2771 43.6438C70.7881 43.9852 70.2624 44.1564 69.7005 44.1564C68.9424 44.1564 68.3191 43.8937 67.8305 43.3692C67.3429 42.8455 67.099 42.2418 67.099 41.5584C67.099 41.2898 67.1357 41.0334 67.209 40.7895C67.2824 40.5451 67.3548 40.3377 67.4272 40.167L69.2972 36.0292L62.6991 21.8602C62.6258 21.6652 62.5525 21.4515 62.4791 21.2194C62.4058 20.9878 62.3691 20.7374 62.3691 20.4688C62.3691 19.7611 62.6258 19.1515 63.1391 18.6397C63.6524 18.1271 64.2877 17.8708 65.0457 17.8708C65.6077 17.8708 66.1334 18.042 66.6224 18.3834C67.111 18.724 67.5138 19.2485 67.8305 19.9561L72.1204 29.7695L76.557 19.9561C76.8746 19.2485 77.2839 18.724 77.7853 18.3834C78.2863 18.042 78.8055 17.8708 79.3436 17.8708Z" fill="white"/>
</g>
<g filter="url(#filter5_d_258_1488)">
<path d="M16.7693 51.1811C18.7236 51.9624 20.049 52.9328 20.7457 54.0922C21.4423 55.252 21.7907 56.5153 21.7907 57.8821C21.7907 60.1024 20.9959 61.9264 19.4074 63.3545C17.8197 64.7826 15.4612 65.4966 12.3327 65.4966H5.62468C4.64662 65.4966 3.84639 65.1854 3.22307 64.5629C2.59975 63.9404 2.28809 63.1412 2.28809 62.1644V43.2004C2.28809 42.2241 2.59975 41.4245 3.22307 40.802C3.84639 40.1795 4.64662 39.8682 5.62468 39.8682H11.856C13.2736 39.8682 14.5936 40.1003 15.816 40.564C17.0378 41.0281 18.0274 41.7357 18.7841 42.6878C19.5417 43.6398 19.9207 44.8605 19.9207 46.3495C19.9207 47.3249 19.6943 48.2517 19.2424 49.1306C18.79 50.0094 17.9655 50.6932 16.7693 51.1811ZM8.29945 44.9214V49.57H11.856C12.4913 49.57 13.017 49.326 13.4327 48.8376C13.8479 48.3497 14.056 47.7766 14.056 47.1184C14.056 46.3618 13.8479 45.8066 13.4327 45.4524C13.017 45.0985 12.4913 44.9214 11.856 44.9214H8.29945ZM12.3327 60.4434C13.286 60.4434 14.0193 60.2787 14.5327 59.9491C15.046 59.6195 15.4062 59.2177 15.6143 58.7426C15.8219 58.2665 15.926 57.7969 15.926 57.3328C15.926 56.8449 15.8279 56.3565 15.6326 55.8681C15.4369 55.3802 15.0826 54.971 14.5693 54.6414C14.056 54.3119 13.3103 54.1471 12.3327 54.1471H8.29945V60.4434H12.3327Z" fill="#FFC84D"/>
</g>
<g filter="url(#filter6_d_258_1488)">
<path d="M32.2741 65.7164C31.0027 65.7164 29.8541 65.4052 28.8275 64.7827C27.8018 64.1602 26.9836 63.1839 26.3727 61.8533C25.7613 60.5232 25.4561 58.7843 25.4561 56.6372V49.2039C25.4561 48.3983 25.743 47.7154 26.3177 47.1552C26.892 46.594 27.5827 46.313 28.3893 46.313C29.1703 46.313 29.8477 46.594 30.4224 47.1552C30.9967 47.7154 31.2841 48.3983 31.2841 49.2039V56.6372C31.2841 58.0534 31.5834 59.097 32.1824 59.768C32.781 60.4381 33.5693 60.7731 34.5474 60.7731C35.305 60.7731 35.9223 60.6207 36.399 60.3154C36.8756 60.0105 37.2483 59.6448 37.5173 59.2187C37.7859 58.7917 37.9692 58.3948 38.0673 58.0286C38.1649 57.6625 38.2139 57.4309 38.2139 57.3329V49.2039C38.2139 48.3983 38.5073 47.7154 39.0939 47.1552C39.6806 46.594 40.3649 46.313 41.1472 46.313C41.9282 46.313 42.612 46.594 43.1987 47.1552C43.7853 47.7154 44.0786 48.3983 44.0786 49.2039V62.6772C44.0786 63.5075 43.7853 64.2092 43.1987 64.7827C42.612 65.3567 41.9282 65.6432 41.1472 65.6432C40.3649 65.6432 39.6806 65.3567 39.0939 64.7827C38.5073 64.2092 38.2139 63.5075 38.2139 62.6772V61.5421C38.1892 61.9815 37.9389 62.5307 37.4623 63.1898C36.9856 63.8489 36.3133 64.4348 35.4457 64.9475C34.5776 65.4601 33.5207 65.7164 32.2741 65.7164Z" fill="#FFC84D"/>
</g>
<g filter="url(#filter7_d_258_1488)">
<path d="M64.3504 46.3494C65.1314 46.3494 65.7786 46.6057 66.2919 47.1184C66.8052 47.6301 67.0619 48.2398 67.0619 48.9474C67.0619 49.2161 67.0252 49.4664 66.9519 49.6981C66.8786 49.9301 66.7928 50.1439 66.6952 50.3389L57.4939 70.5497C57.1758 71.2564 56.7725 71.7805 56.2839 72.1224C55.7949 72.4639 55.2692 72.635 54.7073 72.635C53.9492 72.635 53.3259 72.3723 52.8374 71.8478C52.3497 71.3242 52.1059 70.7204 52.1059 70.0371C52.1059 69.7684 52.1425 69.5121 52.2159 69.2681C52.2892 69.0237 52.3616 68.8163 52.434 68.6456L54.304 64.5079L47.706 50.3389C47.6326 50.1439 47.5593 49.9301 47.486 49.6981C47.4126 49.4664 47.376 49.2161 47.376 48.9474C47.376 48.2398 47.6326 47.6301 48.146 47.1184C48.6593 46.6057 49.2945 46.3494 50.0526 46.3494C50.6145 46.3494 51.1402 46.5206 51.6292 46.8621C52.1178 47.2026 52.5207 47.7271 52.8374 48.4348L57.1273 58.2482L61.5638 48.4348C61.8815 47.7271 62.2907 47.2026 62.7921 46.8621C63.2931 46.5206 63.8124 46.3494 64.3504 46.3494Z" fill="#FFC84D"/>
</g>
</g>
<defs>
<filter id="filter0_d_258_1488" x="75.3691" y="11.4775" width="70.8926" height="56.4692" filterUnits="userSpaceOnUse" color-interpolation-filters="sRGB">
<feFlood flood-opacity="0" result="BackgroundImageFix"/>
<feColorMatrix in="SourceAlpha" type="matrix" values="0 0 0 0 0 0 0 0 0 0 0 0 0 0 0 0 0 0 127 0" result="hardAlpha"/>
<feOffset dy="4"/>
<feGaussianBlur stdDeviation="2"/>
<feComposite in2="hardAlpha" operator="out"/>
<feColorMatrix type="matrix" values="0 0 0 0 0 0 0 0 0 0 0 0 0 0 0 0 0 0 0.1 0"/>
<feBlend mode="normal" in2="BackgroundImageFix" result="effect1_dropShadow_258_1488"/>
<feBlend mode="normal" in="SourceGraphic" in2="effect1_dropShadow_258_1488" result="shape"/>
</filter>
<filter id="filter1_d_258_1488" x="-1.71191" y="11.3899" width="25.9629" height="33.6284" filterUnits="userSpaceOnUse" color-interpolation-filters="sRGB">
<feFlood flood-opacity="0" result="BackgroundImageFix"/>
<feColorMatrix in="SourceAlpha" type="matrix" values="0 0 0 0 0 0 0 0 0 0 0 0 0 0 0 0 0 0 127 0" result="hardAlpha"/>
<feOffset dy="4"/>
<feGaussianBlur stdDeviation="2"/>
<feComposite in2="hardAlpha" operator="out"/>
<feColorMatrix type="matrix" values="0 0 0 0 0 0 0 0 0 0 0 0 0 0 0 0 0 0 0.1 0"/>
<feBlend mode="normal" in2="BackgroundImageFix" result="effect1_dropShadow_258_1488"/>
<feBlend mode="normal" in="SourceGraphic" in2="effect1_dropShadow_258_1488" result="shape"/>
</filter>
<filter id="filter2_d_258_1488" x="18.2656" y="17.7613" width="27.5029" height="27.5133" filterUnits="userSpaceOnUse" color-interpolation-filters="sRGB">
<feFlood flood-opacity="0" result="BackgroundImageFix"/>
<feColorMatrix in="SourceAlpha" type="matrix" values="0 0 0 0 0 0 0 0 0 0 0 0 0 0 0 0 0 0 127 0" result="hardAlpha"/>
<feOffset dy="4"/>
<feGaussianBlur stdDeviation="2"/>
<feComposite in2="hardAlpha" operator="out"/>
<feColorMatrix type="matrix" values="0 0 0 0 0 0 0 0 0 0 0 0 0 0 0 0 0 0 0.1 0"/>
<feBlend mode="normal" in2="BackgroundImageFix" result="effect1_dropShadow_258_1488"/>
<feBlend mode="normal" in="SourceGraphic" in2="effect1_dropShadow_258_1488" result="shape"/>
</filter>
<filter id="filter3_d_258_1488" x="41.251" y="17.7613" width="23.1045" height="27.4401" filterUnits="userSpaceOnUse" color-interpolation-filters="sRGB">
<feFlood flood-opacity="0" result="BackgroundImageFix"/>
<feColorMatrix in="SourceAlpha" type="matrix" values="0 0 0 0 0 0 0 0 0 0 0 0 0 0 0 0 0 0 127 0" result="hardAlpha"/>
<feOffset dy="4"/>
<feGaussianBlur stdDeviation="2"/>
<feComposite in2="hardAlpha" operator="out"/>
<feColorMatrix type="matrix" values="0 0 0 0 0 0 0 0 0 0 0 0 0 0 0 0 0 0 0.1 0"/>
<feBlend mode="normal" in2="BackgroundImageFix" result="effect1_dropShadow_258_1488"/>
<feBlend mode="normal" in="SourceGraphic" in2="effect1_dropShadow_258_1488" result="shape"/>
</filter>
<filter id="filter4_d_258_1488" x="58.3691" y="17.8708" width="27.6855" height="34.2856" filterUnits="userSpaceOnUse" color-interpolation-filters="sRGB">
<feFlood flood-opacity="0" result="BackgroundImageFix"/>
<feColorMatrix in="SourceAlpha" type="matrix" values="0 0 0 0 0 0 0 0 0 0 0 0 0 0 0 0 0 0 127 0" result="hardAlpha"/>
<feOffset dy="4"/>
<feGaussianBlur stdDeviation="2"/>
<feComposite in2="hardAlpha" operator="out"/>
<feColorMatrix type="matrix" values="0 0 0 0 0 0 0 0 0 0 0 0 0 0 0 0 0 0 0.1 0"/>
<feBlend mode="normal" in2="BackgroundImageFix" result="effect1_dropShadow_258_1488"/>
<feBlend mode="normal" in="SourceGraphic" in2="effect1_dropShadow_258_1488" result="shape"/>
</filter>
<filter id="filter5_d_258_1488" x="-1.71191" y="39.8682" width="27.5029" height="33.6284" filterUnits="userSpaceOnUse" color-interpolation-filters="sRGB">
<feFlood flood-opacity="0" result="BackgroundImageFix"/>
<feColorMatrix in="SourceAlpha" type="matrix" values="0 0 0 0 0 0 0 0 0 0 0 0 0 0 0 0 0 0 127 0" result="hardAlpha"/>
<feOffset dy="4"/>
<feGaussianBlur stdDeviation="2"/>
<feComposite in2="hardAlpha" operator="out"/>
<feColorMatrix type="matrix" values="0 0 0 0 0 0 0 0 0 0 0 0 0 0 0 0 0 0 0.1 0"/>
<feBlend mode="normal" in2="BackgroundImageFix" result="effect1_dropShadow_258_1488"/>
<feBlend mode="normal" in="SourceGraphic" in2="effect1_dropShadow_258_1488" result="shape"/>
</filter>
<filter id="filter6_d_258_1488" x="21.4561" y="46.313" width="26.623" height="27.4034" filterUnits="userSpaceOnUse" color-interpolation-filters="sRGB">
<feFlood flood-opacity="0" result="BackgroundImageFix"/>
<feColorMatrix in="SourceAlpha" type="matrix" values="0 0 0 0 0 0 0 0 0 0 0 0 0 0 0 0 0 0 127 0" result="hardAlpha"/>
<feOffset dy="4"/>
<feGaussianBlur stdDeviation="2"/>
<feComposite in2="hardAlpha" operator="out"/>
<feColorMatrix type="matrix" values="0 0 0 0 0 0 0 0 0 0 0 0 0 0 0 0 0 0 0.1 0"/>
<feBlend mode="normal" in2="BackgroundImageFix" result="effect1_dropShadow_258_1488"/>
<feBlend mode="normal" in="SourceGraphic" in2="effect1_dropShadow_258_1488" result="shape"/>
</filter>
<filter id="filter7_d_258_1488" x="43.376" y="46.3494" width="27.6855" height="34.2856" filterUnits="userSpaceOnUse" color-interpolation-filters="sRGB">
<feFlood flood-opacity="0" result="BackgroundImageFix"/>
<feColorMatrix in="SourceAlpha" type="matrix" values="0 0 0 0 0 0 0 0 0 0 0 0 0 0 0 0 0 0 127 0" result="hardAlpha"/>
<feOffset dy="4"/>
<feGaussianBlur stdDeviation="2"/>
<feComposite in2="hardAlpha" operator="out"/>
<feColorMatrix type="matrix" values="0 0 0 0 0 0 0 0 0 0 0 0 0 0 0 0 0 0 0.1 0"/>
<feBlend mode="normal" in2="BackgroundImageFix" result="effect1_dropShadow_258_1488"/>
<feBlend mode="normal" in="SourceGraphic" in2="effect1_dropShadow_258_1488" result="shape"/>
</filter>
</defs>
</svg>
