<svg width="318" height="235" viewBox="0 0 318 235" fill="none" xmlns="http://www.w3.org/2000/svg">
<rect x="86.5" y="38.8784" width="88.759" height="67.5202" fill="#BC8D7A" stroke="#444444"/>
<rect x="86.5" y="38.8784" width="88.759" height="67.5202" fill="#BC8D7A" stroke="#444444"/>
<path d="M203.989 80.7039L176.259 105.772V38.5603L206.626 2.65601L203.989 80.7039Z" fill="#BC8D7A" stroke="#444444"/>
<path d="M206.994 0.651367L175.527 37.8779H87.2354L125.696 0.651367H206.994Z" fill="#BC8D7A" stroke="#444444"/>
<mask id="path-5-inside-1_308_5486" fill="white">
<path d="M171.213 1.54297L146.671 39.5225L145.79 54.1172L145.733 55.0566H123.085L123.149 53.9961L124.047 39.1406L124.064 38.8525L124.232 38.6182L151.608 0.417969L151.908 0H172.21L171.213 1.54297Z"/>
</mask>
<path d="M171.213 1.54297L146.671 39.5225L145.79 54.1172L145.733 55.0566H123.085L123.149 53.9961L124.047 39.1406L124.064 38.8525L124.232 38.6182L151.608 0.417969L151.908 0H172.21L171.213 1.54297Z" fill="#E03C3C"/>
<path d="M171.213 1.54297L170.373 1.00022L170.373 1.00023L171.213 1.54297ZM146.671 39.5225L145.831 38.9797L145.689 39.2002L145.673 39.4622L146.671 39.5225ZM145.79 54.1172L144.792 54.0569L144.792 54.057L145.79 54.1172ZM145.733 55.0566V56.0566H146.675L146.732 55.1168L145.733 55.0566ZM123.085 55.0566L122.087 54.996L122.022 56.0566H123.085V55.0566ZM123.149 53.9961L124.148 54.0568L124.148 54.0564L123.149 53.9961ZM124.047 39.1406L123.049 39.0797L123.049 39.0803L124.047 39.1406ZM124.064 38.8525L123.252 38.27L123.084 38.5041L123.066 38.7916L124.064 38.8525ZM124.232 38.6182L125.045 39.2007L125.045 39.2007L124.232 38.6182ZM151.608 0.417969L150.796 -0.164885L150.796 -0.164539L151.608 0.417969ZM151.908 0V-1H151.395L151.096 -0.582853L151.908 0ZM172.21 0L173.05 0.542744L174.047 -1L172.21 -1V0ZM171.213 1.54297L170.373 1.00023L145.831 38.9797L146.671 39.5225L147.511 40.0652L172.053 2.08571L171.213 1.54297ZM146.671 39.5225L145.673 39.4622L144.792 54.0569L145.79 54.1172L146.788 54.1774L147.669 39.5827L146.671 39.5225ZM145.79 54.1172L144.792 54.057L144.735 54.9965L145.733 55.0566L146.732 55.1168L146.788 54.1774L145.79 54.1172ZM145.733 55.0566V54.0566H123.085V55.0566V56.0566H145.733V55.0566ZM123.085 55.0566L124.083 55.1173L124.148 54.0568L123.149 53.9961L122.151 53.9354L122.087 54.996L123.085 55.0566ZM123.149 53.9961L124.148 54.0564L125.045 39.2009L124.047 39.1406L123.049 39.0803L122.151 53.9358L123.149 53.9961ZM124.047 39.1406L125.045 39.2015L125.063 38.9134L124.064 38.8525L123.066 38.7916L123.049 39.0797L124.047 39.1406ZM124.064 38.8525L124.877 39.4351L125.045 39.2007L124.232 38.6182L123.42 38.0356L123.252 38.27L124.064 38.8525ZM124.232 38.6182L125.045 39.2007L152.421 1.00048L151.608 0.417969L150.796 -0.164539L123.42 38.0357L124.232 38.6182ZM151.608 0.417969L152.421 1.00082L152.721 0.582853L151.908 0L151.096 -0.582853L150.796 -0.164885L151.608 0.417969ZM151.908 0V1H172.21V0V-1H151.908V0ZM172.21 0L171.37 -0.542744L170.373 1.00022L171.213 1.54297L172.053 2.08571L173.05 0.542744L172.21 0Z" fill="#444444" mask="url(#path-5-inside-1_308_5486)"/>
<path d="M207.624 38.8521C222.478 38.8523 234.5 50.6113 234.5 65.0923C234.5 79.5733 222.478 91.3323 207.624 91.3325C192.769 91.3325 180.747 79.5735 180.747 65.0923C180.747 50.6112 192.769 38.8521 207.624 38.8521Z" fill="#6EC064" stroke="#444444"/>
<path d="M222.434 54.4812L202.687 73.1571L193.711 64.668" stroke="#009951" stroke-width="4" stroke-linecap="round" stroke-linejoin="round"/>
<path d="M26.3352 212.909C26.3352 215.764 25.794 218.193 24.7116 220.196C23.6378 222.199 22.1719 223.729 20.3139 224.786C18.4645 225.834 16.3849 226.358 14.0753 226.358C11.7486 226.358 9.66051 225.83 7.81108 224.773C5.96165 223.716 4.5 222.186 3.42614 220.183C2.35227 218.18 1.81534 215.756 1.81534 212.909C1.81534 210.054 2.35227 207.625 3.42614 205.622C4.5 203.619 5.96165 202.094 7.81108 201.045C9.66051 199.989 11.7486 199.46 14.0753 199.46C16.3849 199.46 18.4645 199.989 20.3139 201.045C22.1719 202.094 23.6378 203.619 24.7116 205.622C25.794 207.625 26.3352 210.054 26.3352 212.909ZM20.723 212.909C20.723 211.06 20.446 209.5 19.892 208.23C19.3466 206.96 18.5753 205.997 17.5781 205.341C16.581 204.685 15.4134 204.357 14.0753 204.357C12.7372 204.357 11.5696 204.685 10.5724 205.341C9.57528 205.997 8.79972 206.96 8.24574 208.23C7.70028 209.5 7.42756 211.06 7.42756 212.909C7.42756 214.759 7.70028 216.318 8.24574 217.588C8.79972 218.858 9.57528 219.821 10.5724 220.477C11.5696 221.134 12.7372 221.462 14.0753 221.462C15.4134 221.462 16.581 221.134 17.5781 220.477C18.5753 219.821 19.3466 218.858 19.892 217.588C20.446 216.318 20.723 214.759 20.723 212.909ZM30.3335 226V206.364H35.6133V209.79H35.8178C36.1758 208.571 36.7766 207.651 37.6204 207.028C38.4641 206.398 39.4357 206.082 40.5352 206.082C40.8079 206.082 41.1019 206.099 41.4173 206.134C41.7326 206.168 42.0096 206.214 42.2482 206.274V211.107C41.9925 211.03 41.6389 210.962 41.1871 210.902C40.7354 210.842 40.3221 210.812 39.9471 210.812C39.146 210.812 38.43 210.987 37.7994 211.337C37.1772 211.678 36.6829 212.155 36.3164 212.768C35.9585 213.382 35.7795 214.089 35.7795 214.891V226H30.3335ZM51.3857 226.32C49.8942 226.32 48.5433 225.936 47.3331 225.169C46.1314 224.393 45.1768 223.256 44.4695 221.756C43.7706 220.247 43.4212 218.398 43.4212 216.207C43.4212 213.957 43.7834 212.087 44.5078 210.595C45.2322 209.095 46.1953 207.974 47.397 207.233C48.6072 206.483 49.9325 206.108 51.3729 206.108C52.4723 206.108 53.3885 206.295 54.1214 206.67C54.8629 207.037 55.4595 207.497 55.9112 208.051C56.3714 208.597 56.7209 209.134 56.9595 209.662H57.1257V199.818H62.559V226H57.1896V222.855H56.9595C56.7038 223.401 56.3416 223.942 55.8729 224.479C55.4126 225.007 54.8118 225.446 54.0703 225.795C53.3374 226.145 52.4425 226.32 51.3857 226.32ZM53.1115 221.986C53.9893 221.986 54.7308 221.747 55.3359 221.27C55.9496 220.784 56.4183 220.107 56.7422 219.237C57.0746 218.368 57.2408 217.349 57.2408 216.182C57.2408 215.014 57.0788 214 56.755 213.139C56.4311 212.278 55.9624 211.614 55.3487 211.145C54.7351 210.676 53.9893 210.442 53.1115 210.442C52.2166 210.442 51.4624 210.685 50.8487 211.17C50.2351 211.656 49.7706 212.33 49.4553 213.19C49.1399 214.051 48.9822 215.048 48.9822 216.182C48.9822 217.324 49.1399 218.334 49.4553 219.212C49.7791 220.081 50.2436 220.763 50.8487 221.257C51.4624 221.743 52.2166 221.986 53.1115 221.986ZM75.9854 226.384C73.9656 226.384 72.2269 225.974 70.7695 225.156C69.3207 224.33 68.2042 223.162 67.4201 221.653C66.636 220.136 66.244 218.342 66.244 216.271C66.244 214.251 66.636 212.479 67.4201 210.953C68.2042 209.428 69.3079 208.239 70.7312 207.386C72.163 206.534 73.842 206.108 75.7681 206.108C77.0636 206.108 78.2695 206.317 79.386 206.734C80.511 207.143 81.4911 207.761 82.3264 208.588C83.1701 209.415 83.8264 210.455 84.2951 211.707C84.7639 212.952 84.9982 214.409 84.9982 216.08V217.575H68.4173V214.2H79.8718C79.8718 213.416 79.7014 212.722 79.3604 212.116C79.0195 211.511 78.5465 211.038 77.9414 210.697C77.3448 210.348 76.6502 210.173 75.8576 210.173C75.0309 210.173 74.2979 210.365 73.6587 210.749C73.0281 211.124 72.5337 211.631 72.1758 212.27C71.8178 212.901 71.6346 213.604 71.6261 214.379V217.588C71.6261 218.56 71.805 219.399 72.163 220.107C72.5295 220.814 73.0451 221.359 73.7099 221.743C74.3746 222.126 75.163 222.318 76.0749 222.318C76.68 222.318 77.234 222.233 77.7369 222.062C78.2397 221.892 78.6701 221.636 79.0281 221.295C79.386 220.955 79.6587 220.537 79.8462 220.043L84.8832 220.375C84.6275 221.585 84.1033 222.642 83.3107 223.545C82.5266 224.44 81.5124 225.139 80.2681 225.642C79.0323 226.136 77.6048 226.384 75.9854 226.384ZM88.5522 226V206.364H93.832V209.79H94.0366C94.3945 208.571 94.9954 207.651 95.8391 207.028C96.6829 206.398 97.6545 206.082 98.7539 206.082C99.0266 206.082 99.3207 206.099 99.636 206.134C99.9513 206.168 100.228 206.214 100.467 206.274V211.107C100.211 211.03 99.8576 210.962 99.4059 210.902C98.9542 210.842 98.5408 210.812 98.1658 210.812C97.3647 210.812 96.6488 210.987 96.0181 211.337C95.396 211.678 94.9016 212.155 94.5352 212.768C94.1772 213.382 93.9982 214.089 93.9982 214.891V226H88.5522ZM125.92 207.348C125.818 206.317 125.379 205.516 124.603 204.945C123.828 204.374 122.775 204.088 121.446 204.088C120.542 204.088 119.779 204.216 119.157 204.472C118.535 204.719 118.058 205.064 117.725 205.507C117.402 205.95 117.24 206.453 117.24 207.016C117.223 207.484 117.321 207.893 117.534 208.243C117.755 208.592 118.058 208.895 118.441 209.151C118.825 209.398 119.268 209.615 119.771 209.803C120.274 209.982 120.811 210.135 121.382 210.263L123.734 210.825C124.876 211.081 125.924 211.422 126.879 211.848C127.833 212.274 128.66 212.798 129.359 213.42C130.058 214.043 130.599 214.776 130.983 215.619C131.375 216.463 131.575 217.43 131.583 218.521C131.575 220.124 131.166 221.513 130.356 222.689C129.555 223.857 128.396 224.764 126.879 225.412C125.37 226.051 123.551 226.371 121.42 226.371C119.306 226.371 117.466 226.047 115.897 225.399C114.338 224.751 113.119 223.793 112.241 222.523C111.372 221.244 110.916 219.663 110.873 217.78H116.23C116.289 218.658 116.541 219.391 116.984 219.979C117.436 220.558 118.037 220.997 118.787 221.295C119.545 221.585 120.402 221.73 121.356 221.73C122.294 221.73 123.108 221.594 123.798 221.321C124.497 221.048 125.038 220.669 125.422 220.183C125.805 219.697 125.997 219.139 125.997 218.509C125.997 217.92 125.822 217.426 125.473 217.026C125.132 216.625 124.629 216.284 123.964 216.003C123.308 215.722 122.502 215.466 121.548 215.236L118.697 214.52C116.49 213.983 114.747 213.143 113.468 212.001C112.19 210.859 111.555 209.321 111.564 207.386C111.555 205.801 111.977 204.416 112.829 203.232C113.69 202.047 114.87 201.122 116.37 200.457C117.87 199.793 119.575 199.46 121.484 199.46C123.427 199.46 125.123 199.793 126.572 200.457C128.029 201.122 129.163 202.047 129.973 203.232C130.782 204.416 131.2 205.788 131.225 207.348H125.92ZM147.797 217.639V206.364H153.243V226H148.014V222.433H147.81C147.366 223.584 146.629 224.509 145.598 225.207C144.575 225.906 143.327 226.256 141.852 226.256C140.54 226.256 139.385 225.957 138.388 225.361C137.391 224.764 136.611 223.916 136.048 222.817C135.494 221.717 135.213 220.401 135.205 218.866V206.364H140.651V217.895C140.659 219.054 140.97 219.97 141.584 220.643C142.197 221.317 143.02 221.653 144.051 221.653C144.707 221.653 145.321 221.504 145.892 221.206C146.463 220.899 146.923 220.447 147.273 219.851C147.631 219.254 147.805 218.517 147.797 217.639ZM166.471 226.384C164.46 226.384 162.73 225.957 161.281 225.105C159.841 224.244 158.733 223.051 157.957 221.526C157.19 220 156.806 218.244 156.806 216.259C156.806 214.247 157.194 212.483 157.97 210.966C158.754 209.44 159.866 208.251 161.306 207.399C162.747 206.538 164.46 206.108 166.446 206.108C168.159 206.108 169.659 206.419 170.946 207.041C172.233 207.663 173.251 208.537 174.001 209.662C174.751 210.787 175.164 212.108 175.241 213.625H170.102C169.957 212.645 169.574 211.857 168.951 211.26C168.338 210.655 167.532 210.352 166.535 210.352C165.691 210.352 164.954 210.582 164.324 211.043C163.701 211.494 163.216 212.155 162.866 213.024C162.517 213.893 162.342 214.946 162.342 216.182C162.342 217.435 162.512 218.5 162.853 219.378C163.203 220.256 163.693 220.925 164.324 221.385C164.954 221.845 165.691 222.075 166.535 222.075C167.157 222.075 167.716 221.947 168.21 221.692C168.713 221.436 169.126 221.065 169.45 220.58C169.782 220.085 170 219.493 170.102 218.803H175.241C175.156 220.303 174.747 221.624 174.014 222.766C173.289 223.899 172.288 224.786 171.01 225.425C169.731 226.064 168.218 226.384 166.471 226.384ZM187.6 226.384C185.589 226.384 183.859 225.957 182.41 225.105C180.969 224.244 179.862 223.051 179.086 221.526C178.319 220 177.935 218.244 177.935 216.259C177.935 214.247 178.323 212.483 179.099 210.966C179.883 209.44 180.995 208.251 182.435 207.399C183.876 206.538 185.589 206.108 187.575 206.108C189.288 206.108 190.788 206.419 192.075 207.041C193.362 207.663 194.38 208.537 195.13 209.662C195.88 210.787 196.293 212.108 196.37 213.625H191.231C191.086 212.645 190.702 211.857 190.08 211.26C189.467 210.655 188.661 210.352 187.664 210.352C186.82 210.352 186.083 210.582 185.452 211.043C184.83 211.494 184.344 212.155 183.995 213.024C183.646 213.893 183.471 214.946 183.471 216.182C183.471 217.435 183.641 218.5 183.982 219.378C184.332 220.256 184.822 220.925 185.452 221.385C186.083 221.845 186.82 222.075 187.664 222.075C188.286 222.075 188.844 221.947 189.339 221.692C189.842 221.436 190.255 221.065 190.579 220.58C190.911 220.085 191.129 219.493 191.231 218.803H196.37C196.285 220.303 195.876 221.624 195.143 222.766C194.418 223.899 193.417 224.786 192.138 225.425C190.86 226.064 189.347 226.384 187.6 226.384ZM208.806 226.384C206.786 226.384 205.047 225.974 203.59 225.156C202.141 224.33 201.025 223.162 200.24 221.653C199.456 220.136 199.064 218.342 199.064 216.271C199.064 214.251 199.456 212.479 200.24 210.953C201.025 209.428 202.128 208.239 203.551 207.386C204.983 206.534 206.662 206.108 208.588 206.108C209.884 206.108 211.09 206.317 212.206 206.734C213.331 207.143 214.311 207.761 215.147 208.588C215.99 209.415 216.647 210.455 217.115 211.707C217.584 212.952 217.819 214.409 217.819 216.08V217.575H201.238V214.2H212.692C212.692 213.416 212.522 212.722 212.181 212.116C211.84 211.511 211.367 211.038 210.762 210.697C210.165 210.348 209.471 210.173 208.678 210.173C207.851 210.173 207.118 210.365 206.479 210.749C205.848 211.124 205.354 211.631 204.996 212.27C204.638 212.901 204.455 213.604 204.446 214.379V217.588C204.446 218.56 204.625 219.399 204.983 220.107C205.35 220.814 205.865 221.359 206.53 221.743C207.195 222.126 207.983 222.318 208.895 222.318C209.5 222.318 210.054 222.233 210.557 222.062C211.06 221.892 211.49 221.636 211.848 221.295C212.206 220.955 212.479 220.537 212.667 220.043L217.703 220.375C217.448 221.585 216.924 222.642 216.131 223.545C215.347 224.44 214.333 225.139 213.088 225.642C211.853 226.136 210.425 226.384 208.806 226.384ZM237.711 211.963L232.725 212.27C232.64 211.844 232.456 211.46 232.175 211.119C231.894 210.77 231.523 210.493 231.063 210.288C230.611 210.075 230.07 209.969 229.439 209.969C228.596 209.969 227.884 210.148 227.304 210.506C226.725 210.855 226.435 211.324 226.435 211.912C226.435 212.381 226.623 212.777 226.998 213.101C227.373 213.425 228.016 213.685 228.928 213.881L232.482 214.597C234.391 214.989 235.814 215.619 236.752 216.489C237.689 217.358 238.158 218.5 238.158 219.915C238.158 221.202 237.779 222.331 237.02 223.303C236.27 224.274 235.239 225.033 233.926 225.578C232.623 226.115 231.118 226.384 229.414 226.384C226.814 226.384 224.743 225.842 223.201 224.76C221.667 223.669 220.767 222.186 220.503 220.311L225.86 220.03C226.022 220.822 226.414 221.428 227.036 221.845C227.658 222.254 228.455 222.459 229.426 222.459C230.381 222.459 231.148 222.276 231.728 221.909C232.316 221.534 232.614 221.053 232.623 220.464C232.614 219.97 232.405 219.565 231.996 219.25C231.587 218.926 230.956 218.679 230.104 218.509L226.703 217.831C224.786 217.447 223.358 216.783 222.421 215.837C221.492 214.891 221.027 213.685 221.027 212.219C221.027 210.957 221.368 209.871 222.05 208.959C222.74 208.047 223.708 207.344 224.952 206.849C226.205 206.355 227.671 206.108 229.35 206.108C231.83 206.108 233.782 206.632 235.205 207.68C236.637 208.729 237.472 210.156 237.711 211.963ZM257.925 211.963L252.94 212.27C252.854 211.844 252.671 211.46 252.39 211.119C252.109 210.77 251.738 210.493 251.278 210.288C250.826 210.075 250.285 209.969 249.654 209.969C248.81 209.969 248.099 210.148 247.519 210.506C246.94 210.855 246.65 211.324 246.65 211.912C246.65 212.381 246.837 212.777 247.212 213.101C247.587 213.425 248.231 213.685 249.143 213.881L252.697 214.597C254.606 214.989 256.029 215.619 256.967 216.489C257.904 217.358 258.373 218.5 258.373 219.915C258.373 221.202 257.994 222.331 257.235 223.303C256.485 224.274 255.454 225.033 254.141 225.578C252.837 226.115 251.333 226.384 249.629 226.384C247.029 226.384 244.958 225.842 243.415 224.76C241.881 223.669 240.982 222.186 240.718 220.311L246.075 220.03C246.237 220.822 246.629 221.428 247.251 221.845C247.873 222.254 248.67 222.459 249.641 222.459C250.596 222.459 251.363 222.276 251.942 221.909C252.531 221.534 252.829 221.053 252.837 220.464C252.829 219.97 252.62 219.565 252.211 219.25C251.802 218.926 251.171 218.679 250.319 218.509L246.918 217.831C245.001 217.447 243.573 216.783 242.636 215.837C241.707 214.891 241.242 213.685 241.242 212.219C241.242 210.957 241.583 209.871 242.265 208.959C242.955 208.047 243.923 207.344 245.167 206.849C246.42 206.355 247.886 206.108 249.565 206.108C252.045 206.108 253.996 206.632 255.42 207.68C256.852 208.729 257.687 210.156 257.925 211.963ZM272.362 206.364V210.455H260.243V206.364H272.362ZM263.017 226V204.945C263.017 203.521 263.294 202.341 263.848 201.403C264.41 200.466 265.177 199.763 266.149 199.294C267.12 198.825 268.224 198.591 269.46 198.591C270.295 198.591 271.058 198.655 271.748 198.783C272.447 198.911 272.967 199.026 273.308 199.128L272.336 203.219C272.123 203.151 271.859 203.087 271.544 203.027C271.237 202.967 270.922 202.938 270.598 202.938C269.797 202.938 269.238 203.125 268.923 203.5C268.608 203.866 268.45 204.382 268.45 205.047V226H263.017ZM288.281 217.639V206.364H293.727V226H288.499V222.433H288.294C287.851 223.584 287.114 224.509 286.082 225.207C285.06 225.906 283.811 226.256 282.337 226.256C281.024 226.256 279.869 225.957 278.872 225.361C277.875 224.764 277.095 223.916 276.533 222.817C275.979 221.717 275.697 220.401 275.689 218.866V206.364H281.135V217.895C281.143 219.054 281.455 219.97 282.068 220.643C282.682 221.317 283.504 221.653 284.536 221.653C285.192 221.653 285.805 221.504 286.376 221.206C286.947 220.899 287.408 220.447 287.757 219.851C288.115 219.254 288.29 218.517 288.281 217.639ZM303.529 199.818V226H298.083V199.818H303.529ZM314.399 199.818L313.901 218.151H309.222L308.71 199.818H314.399ZM311.561 226.332C310.717 226.332 309.993 226.034 309.388 225.438C308.783 224.832 308.484 224.108 308.493 223.264C308.484 222.429 308.783 221.713 309.388 221.116C309.993 220.52 310.717 220.222 311.561 220.222C312.371 220.222 313.082 220.52 313.696 221.116C314.31 221.713 314.621 222.429 314.629 223.264C314.621 223.827 314.472 224.342 314.182 224.811C313.901 225.271 313.53 225.642 313.07 225.923C312.609 226.196 312.107 226.332 311.561 226.332Z" fill="#6EC064"/>
</svg>
