<svg width="108" height="111" viewBox="0 0 108 111" fill="none" xmlns="http://www.w3.org/2000/svg">
<path d="M48.6549 22.0921L49.5566 24.4875L67.5092 22.0921C67.4272 20.7447 67.378 18.0349 67.8371 17.975C68.2961 17.9151 72.6736 17.2514 74.8049 16.927C75.4061 16.7523 76.6248 15.9988 76.6904 14.3819C76.756 12.765 74.9689 12.261 74.0672 12.2111L65.7877 13.1842C65.9517 12.0364 66.3123 9.12702 66.4435 6.67174C66.6074 3.60265 65.8697 3.07865 65.0499 2.33009C64.3941 1.73125 63.3011 2.08057 62.8366 2.33009C55.4862 5.12472 40.6542 10.9834 40.1295 12.0614C39.6049 13.1393 39.9109 14.1573 40.1295 14.5316C40.9493 16.2533 42.6707 19.8763 42.9986 20.595C43.3265 21.3136 43.955 21.3435 44.2283 21.2687H48.245L48.6549 22.0921Z" fill="black" stroke="black" stroke-width="4"/>
<g filter="url(#filter0_d_115_20)">
<path d="M23.6904 45.6405L29.6746 32.2413L65.6616 26.8517L60.0054 40.4755L23.6904 45.6405Z" fill="#EEFFA3"/>
<path d="M23.6904 45.6405L29.6746 32.2413L65.6616 26.8517L60.0054 40.4755L23.6904 45.6405Z" stroke="white" stroke-width="2"/>
</g>
<path d="M61.6451 42.3469L67.3014 29.0225L72.0559 53.201L36.1509 58.5158L34.0195 46.464L61.6451 42.3469Z" fill="#EEFFA3" stroke="white" stroke-width="2"/>
<path d="M82.549 37.0321L71.4004 25.9534L90.5006 22.7346L101.321 33.963L82.549 37.0321Z" fill="#EEFFA3" stroke="white" stroke-width="2"/>
<path d="M74.4335 52.6021L70.0889 28.199L81.3194 39.3526L90.8285 38.0052L92.9599 50.1318L74.4335 52.6021Z" fill="#EEFFA3" stroke="white" stroke-width="2"/>
<path d="M75.5067 57.5426L72.4737 64.8036H96.6563C98.0772 64.8286 100.903 65.657 100.837 68.771C100.771 71.885 96.0551 89.3314 93.7052 97.6654C93.5686 97.8151 93.0658 98.0696 92.1477 97.89C91.2295 97.7103 90.1256 97.5157 89.6884 97.4408L89.3605 98.4888L100.017 102.606C101.056 102.93 102.968 104.328 102.313 107.322C101.657 110.316 100.181 110.466 99.5254 110.166L78.5398 105.974C77.4741 105.875 75.5723 105.196 76.4904 103.28C77.4086 101.363 79.059 98.0397 79.7694 96.6174L82.6386 86.1376L84.7699 78.5771L60.0135 80.6731C58.292 80.7978 54.39 80.4785 52.5537 78.2028C52.0892 77.6271 51.7687 77.2245 51.5563 76.9524C51.4594 77.8022 51.8222 79.6481 54.0293 80.9725C56.2138 82.2834 56.7895 82.3421 56.8164 82.1942V82.1702C56.8177 82.1786 56.8178 82.1867 56.8164 82.1942V83.6673L41.3232 95.1203C40.2575 95.8189 37.3392 96.7971 34.1913 95.1203C31.0435 93.4435 22.1683 89.2316 18.1242 87.3353V85.3142L18.78 84.0416L17.2225 82.9188L7.38551 89.4312C7.05761 89.7307 6.20507 90.3445 5.41811 90.4044C4.63115 90.4642 3.01351 90.4293 2.30306 90.4044C1.56529 90.1548 0.0733408 89.4761 0.00776077 88.7575C-0.0578192 88.0389 0.308336 87.5099 0.499611 87.3353L15.0092 70.6424C15.2278 70.3929 15.9109 70.0435 16.8946 70.6424C17.8783 71.2412 21.5125 74.6846 23.2067 76.3314L37.0605 83.6673C37.1698 83.817 37.4703 84.0266 37.7982 83.6673C38.1261 83.308 45.9684 72.5387 49.8486 67.199L50.6683 65.5522V61.2105L75.5067 57.5426Z" fill="black"/>
<path d="M91.1719 19.7423C91.5175 19.7747 92.0802 19.9082 92.4561 20.423C92.4255 20.3812 92.4213 20.3825 92.5225 20.4894C92.5986 20.5698 92.7068 20.6823 92.8457 20.8243C93.123 21.1078 93.5124 21.5004 93.9883 21.9776C94.9397 22.9318 96.2316 24.2175 97.6562 25.631C100.505 28.4576 103.882 31.7914 106.122 33.9991H106.121C106.234 34.1061 106.36 34.2469 106.464 34.4171C106.566 34.5848 106.714 34.8914 106.683 35.2755C106.645 35.7367 106.37 36.0861 106.023 36.2843C105.725 36.4548 105.382 36.5143 105.07 36.5333C104.643 36.5594 102.659 36.8645 100.252 37.256C98.0625 37.612 95.6035 38.0256 93.8643 38.3224C94.2412 40.2556 95.5085 47.2003 96.1572 50.7765H96.1543C96.2076 51.0363 96.2205 51.4028 96.0742 51.7735C95.8925 52.2341 95.4968 52.6185 94.9033 52.754C94.7897 52.7798 94.053 52.8936 92.9248 53.0665C91.7558 53.2457 90.0929 53.4989 88.0518 53.8077C83.9689 54.4255 78.3692 55.268 72.1719 56.1993C59.777 58.062 44.9885 60.2779 35.1514 61.7501L35.1504 61.7491C34.946 61.7856 34.6602 61.8104 34.3633 61.7716C34.0759 61.734 33.5238 61.6038 33.1836 61.086C33.0939 60.9495 33.0522 60.811 33.0449 60.7882C33.027 60.732 33.0126 60.6737 33 60.6222C32.9743 60.5173 32.9462 60.3871 32.918 60.2423C32.8609 59.9499 32.7915 59.553 32.7139 59.0821C32.5581 58.1379 32.3637 56.8659 32.1572 55.4718C31.7722 52.873 31.344 49.8336 31.0439 47.6632C30.1995 47.8555 23.6542 48.8068 20.5527 49.2501L20.5176 49.256L20.4814 49.2579C20.3272 49.2687 20.1395 49.2661 19.9453 49.2316C19.7651 49.1995 19.4885 49.1245 19.2383 48.9259C18.9454 48.6933 18.7403 48.3259 18.7539 47.88C18.7656 47.5002 18.9335 47.1789 19.0996 46.9405C19.0854 46.961 19.1031 46.9349 19.1689 46.8077C19.2251 46.6993 19.2991 46.5509 19.3896 46.3634C19.5704 45.9891 19.8091 45.4785 20.0928 44.8614C20.6596 43.6284 21.3987 41.985 22.2012 40.1857C23.8058 36.5875 25.6577 32.3756 26.873 29.5948L27.0957 29.087L27.6445 29.006L90.3311 19.8028C90.5545 19.7517 90.8559 19.7127 91.1719 19.7423Z" stroke="white" stroke-width="2"/>
<defs>
<filter id="filter0_d_115_20" x="18.0392" y="25.6006" width="53.2246" height="29.2849" filterUnits="userSpaceOnUse" color-interpolation-filters="sRGB">
<feFlood flood-opacity="0" result="BackgroundImageFix"/>
<feColorMatrix in="SourceAlpha" type="matrix" values="0 0 0 0 0 0 0 0 0 0 0 0 0 0 0 0 0 0 127 0" result="hardAlpha"/>
<feOffset dy="4"/>
<feGaussianBlur stdDeviation="2"/>
<feComposite in2="hardAlpha" operator="out"/>
<feColorMatrix type="matrix" values="0 0 0 0 0 0 0 0 0 0 0 0 0 0 0 0 0 0 0.25 0"/>
<feBlend mode="normal" in2="BackgroundImageFix" result="effect1_dropShadow_115_20"/>
<feBlend mode="normal" in="SourceGraphic" in2="effect1_dropShadow_115_20" result="shape"/>
</filter>
</defs>
</svg>
